<svg width="147" height="121" viewBox="0 0 147 121" fill="none" xmlns="http://www.w3.org/2000/svg">
<path d="M30.3327 39.9445C34.4507 39.5883 37.8656 37.0949 40.5774 32.5153C41.7325 31.1923 44.6955 30.4799 49.4663 30.4799C54.2372 30.4799 51.7262 30.4799 53.0319 30.5817C46.6038 44.8294 42.084 54.294 39.4726 58.8736C36.8612 63.4532 33.7476 67.3205 30.1318 70.3735C28.8763 71.493 26.9177 72.7142 24.3565 74.0881C21.7953 75.462 18.6817 76.327 15.0157 76.6832C14.8148 76.6832 14.5637 76.6832 14.2624 76.6832C13.5593 76.6832 12.5047 76.5815 11.0985 76.3779C9.69237 76.1744 7.98492 75.462 6.02635 74.1899C5.87569 74.0881 5.37349 73.681 4.56997 72.9178C3.76646 72.1545 2.91274 71.1368 2.00878 69.7629C1.10483 68.389 0.50219 66.7607 0.150653 64.7762C0.0502135 64.013 0 63.2497 0 62.4864C0 60.2984 0.602635 57.9577 1.75769 55.4643C2.91274 52.971 4.92152 50.7829 7.78404 48.8493C7.6836 49.4599 7.63339 50.0705 7.63339 50.6812C7.63339 52.0042 7.88447 53.4289 8.43689 54.9555C8.9893 56.482 9.94349 57.805 11.3999 59.0263C12.9064 60.1457 14.5135 60.7054 16.2209 60.7054H17.5769C18.4808 60.7054 19.6359 60.451 21.0922 59.9422C22.5486 59.4333 23.6534 58.9754 24.3565 58.6192C26.6666 57.4997 28.6252 56.0749 30.182 54.294C31.7388 52.5639 33.0445 50.732 34.0489 48.7475C30.634 50.325 26.9679 51.0882 23.101 51.0882C19.2341 51.0882 20.9416 51.0373 19.8367 50.9356C18.8324 50.8338 17.5266 50.5285 15.8192 50.0705C14.1619 49.6126 12.4545 48.6458 10.7972 47.221C10.2448 46.763 9.59193 45.9998 8.83864 45.033C7.58315 43.1502 6.77966 41.2166 6.47834 39.2321C6.32768 38.1126 6.22724 37.0441 6.22724 35.9755C6.22724 34.9069 6.27746 34.1436 6.47834 32.9224C6.629 31.7012 6.82987 30.5817 7.13119 29.5131C7.98492 25.9512 9.54171 22.3384 11.8518 18.6747C14.1619 15.011 16.9742 11.6526 20.2385 8.6504C23.5028 5.6482 27.0182 3.3075 30.7344 1.73008C33.4463 0.559729 36.1079 0 38.7193 0C41.3307 0 40.7281 0.101769 41.6823 0.254424C42.2347 0.305308 42.988 0.508847 43.9422 0.763271C44.9466 1.06858 45.9509 1.52654 47.0055 2.23892C48.0602 2.95131 48.9139 3.969 49.617 5.24112C50.32 6.66589 50.6716 8.19243 50.6716 9.82074C50.6716 11.4491 50.6716 10.8893 50.5209 12.1106C50.4205 13.2809 49.9685 14.8583 49.165 16.792C48.3615 18.7256 47.3571 20.4048 46.2523 21.7786C45.9007 22.2366 45.3985 22.7455 44.7959 23.3561C44.1933 23.9667 43.3395 24.5264 42.3351 25.0353C40.929 25.6968 39.5228 26.0021 38.1167 26.0021C36.7105 26.0021 36.8612 25.9003 35.7061 25.6968C34.5511 25.4932 33.396 24.8317 32.1908 23.7123C31.5379 23.1016 31.0357 22.4402 30.6842 21.8295C30.9855 21.5751 31.8392 20.8627 33.2454 19.5906C34.6515 18.3694 36.1079 16.8937 37.5643 15.3163C39.0206 13.688 39.9246 12.2632 40.3263 10.9402C40.3263 10.8384 40.3766 10.584 40.477 10.1769C40.477 9.9734 40.477 9.76986 40.477 9.56632C40.477 9.36278 40.477 9.05747 40.4268 8.70127C40.3766 8.34508 40.2259 7.98889 39.9246 7.68358C39.7739 7.53092 39.6233 7.42916 39.4224 7.32739C39.2717 7.22563 39.1211 7.17474 39.0206 7.12386H38.87C38.7193 7.02209 38.5184 6.9712 38.3176 6.9712H37.6647C36.9616 6.9712 36.3088 7.07296 35.6559 7.22562C35.0533 7.37827 34.5511 7.58181 34.1995 7.73447L33.6471 8.03978C32.7432 8.39597 31.2868 9.41367 29.1776 11.1946C28.0225 12.1106 26.6164 13.5862 24.9592 15.6216C24.457 16.2322 23.8041 17.199 23.0508 18.4711C22.2975 19.7433 21.5944 21.3207 20.9918 23.2543C20.4896 24.73 20.0878 26.5109 19.887 28.5972C19.887 28.9534 19.8367 29.3096 19.8367 29.6658C19.8367 31.3959 20.2887 33.1768 21.2429 35.0087C21.5442 35.5175 21.8455 36.0264 22.2473 36.5861C22.649 37.1458 23.2015 37.7056 23.9548 38.2144C25.16 38.9777 26.3653 39.4356 27.5203 39.5374C28.1732 39.5374 28.7256 39.5883 29.278 39.5883C29.8304 39.5883 30.0313 39.5883 30.3327 39.5883V39.9445Z" fill="#A7E043"/>
<path d="M74.1241 61.1639C74.325 61.6219 74.3752 62.0289 74.3752 62.3851V62.5378C74.3752 62.9449 74.2748 63.2502 74.2246 63.352C73.9232 63.9626 73.4713 64.7767 72.7682 65.8453C72.4167 66.4559 71.814 67.2701 71.0105 68.3895C70.207 69.509 69.303 70.6285 68.1982 71.7479C67.1436 72.8674 65.9383 73.8342 64.6828 74.5466C63.6784 75.1063 62.6238 75.4116 61.5692 75.4116C60.5146 75.4116 61.0168 75.4116 60.7657 75.4116C59.7111 75.2081 58.7569 74.7501 57.853 74.0377C56.949 73.3254 56.3464 72.4603 55.9446 71.4426C55.7438 70.6793 55.6433 69.967 55.6433 69.3055C55.6433 68.644 55.6433 68.7966 55.6433 68.5422C55.6433 67.8807 55.8442 67.1174 56.0953 66.3541C56.2962 65.7435 56.6477 64.9294 57.0997 63.9626C57.2503 63.6573 57.401 63.352 57.5516 63.0466C57.9032 62.3343 58.3049 61.6219 58.6565 60.9604C59.1084 59.8918 59.3596 58.925 59.3596 58.1617C59.3596 57.3984 59.2089 56.9405 58.8574 56.4316C58.7569 56.3299 58.6063 56.1263 58.3552 55.9228C58.1041 55.7192 57.8027 55.5157 57.401 55.3122C57.0494 55.1595 56.7984 55.0577 56.497 54.956L51.4751 65.1838C49.8178 68.5931 48.1606 72.0532 46.5033 75.4625C43.5906 75.1572 41.6822 73.8342 40.7281 71.3917C40.5272 70.7302 40.4268 70.1196 40.4268 69.5599C40.4268 69.0001 40.4268 69.0001 40.5272 68.5422C40.6276 68.0842 40.7281 67.6772 40.8787 67.3718C42.9378 63.1484 45.047 58.925 47.106 54.7016L53.3332 42.0312C53.5341 42.133 53.9358 42.3366 54.5385 42.6419C55.1411 42.9472 55.7437 43.456 56.3966 44.0666C57.0494 44.7281 57.6019 45.5423 58.0538 46.56C58.4054 47.425 58.556 48.1883 58.6063 48.9007C58.6063 49.206 58.6063 49.4604 58.6063 49.7657C58.6063 50.071 58.6063 50.3764 58.6063 50.6308V50.8852C58.6063 50.987 58.6063 51.1396 58.6063 51.3432C58.6063 51.5467 58.6565 51.8011 58.8071 52.1064C58.8071 52.2082 58.9578 52.4117 59.1085 52.6153C59.2591 52.8188 59.5102 53.0732 59.8618 53.3785C60.1631 53.633 60.4644 53.7856 60.7657 53.8874C61.067 53.9892 61.3683 54.0909 61.7199 54.1927C62.0212 54.2436 62.3727 54.3453 62.7745 54.498C63.7789 54.7524 64.6828 55.2104 65.4361 55.7701C66.2396 56.4316 66.7418 57.144 67.0432 57.9073C67.3445 58.6197 67.4951 59.1285 67.4951 59.3829C67.4951 59.4847 67.5453 59.7391 67.5453 60.1462C67.5453 60.248 67.5453 60.4006 67.5453 60.5024C67.5453 60.8077 67.5453 61.1639 67.4449 61.571C67.1938 62.7413 66.8423 63.7081 66.3903 64.5223C66.1392 64.9803 65.9383 65.3873 65.8379 65.7944C65.7877 65.998 65.7375 66.2015 65.7375 66.405C65.7375 66.6086 65.7374 66.7612 65.7877 66.9139C65.7877 67.0665 65.8881 67.1683 65.9886 67.2192C66.1392 67.3209 66.2899 67.321 66.4405 67.321C66.6916 67.321 67.0934 67.2192 67.5453 66.9648C67.9973 66.7103 68.4995 66.3541 69.0017 65.9471C69.1524 65.7944 69.3532 65.5909 69.6043 65.2347C69.8554 64.8785 70.2572 64.3188 70.7594 63.5555C70.8599 63.4028 71.0105 63.2502 71.1109 63.0466C71.6131 62.3343 72.1656 61.3166 72.8184 59.8918C72.9691 59.9427 73.1197 60.0953 73.3708 60.3497C73.6219 60.5533 73.8228 60.8586 74.0237 61.2657L74.1241 61.1639Z" fill="#A7E043"/>
<path d="M97.0244 59.7899C97.1248 59.7899 97.3257 59.9426 97.5266 60.0952C97.7777 60.2479 97.9786 60.5023 98.1292 60.8076C98.3301 61.2147 98.4305 61.5709 98.4305 61.9271C98.4305 62.2833 98.4305 62.4868 98.3803 62.5886C97.8781 63.4536 97.175 64.4713 96.2711 65.5908C95.3671 66.7611 94.2623 67.9315 92.9566 69.1527C92.3539 69.6615 91.6509 70.2722 90.7971 70.9846C89.9434 71.6969 88.939 72.3584 87.784 73.0199C86.6289 73.6814 85.3734 74.2412 84.0175 74.6482C82.6113 75.1062 81.155 75.3098 79.4977 75.3098C77.0872 75.3098 75.1286 74.9536 73.622 74.1903C72.1154 73.427 71.0106 72.4602 70.3075 71.1881C69.6045 69.916 69.2529 68.5421 69.2529 67.0155C69.2529 65.489 69.7551 62.8939 70.8097 60.8585C71.8643 58.8231 73.2203 56.9913 74.9277 55.3629C76.6352 53.7346 78.4933 52.4116 80.6026 51.3939C82.6616 50.3762 84.7708 49.8674 86.88 49.7656C87.2818 49.7656 87.7337 49.7656 88.1355 49.7656C90.1443 49.7656 91.7011 50.2236 92.8059 51.1395C93.9107 52.0554 94.4632 53.4802 94.4632 55.3121C94.4632 57.1948 93.9108 58.7213 92.8562 59.9426C91.7513 61.1638 90.3954 62.1815 88.7381 63.0974C87.0809 63.9625 85.4739 64.624 83.8166 65.031C82.3603 65.3872 81.1047 65.5399 80.1004 65.5399C80.251 65.8961 80.5021 66.1505 80.7532 66.4558C81.4563 67.0664 82.1594 67.4735 82.9629 67.5753C83.7664 67.7279 84.4192 67.7788 84.8712 67.7788C86.6289 67.7788 88.1355 67.3717 89.4914 66.5576C90.8474 65.7434 91.9522 64.9293 92.9064 64.1151C92.9566 64.0642 93.057 64.0133 93.1072 63.9625C94.2121 63.0974 95.5178 61.7235 97.0244 59.8408V59.7899ZM86.7796 53.6329C85.6747 53.6329 84.5197 54.1417 83.4651 55.1085C82.3602 56.0753 81.4563 57.2966 80.7532 58.7213C80.0501 60.1461 79.6484 61.5709 79.5982 62.9956C80.3515 62.9448 81.155 62.7412 82.0589 62.4868C82.9629 62.2324 83.917 61.7744 84.8712 61.1129C85.5241 60.7058 86.2774 60.0443 87.0809 59.2811C87.8844 58.5178 88.3364 57.5001 88.4368 56.2789C88.4368 56.1771 88.4368 56.1262 88.4368 56.0244C88.4368 55.9227 88.4368 55.7191 88.4368 55.5156C88.4368 55.2612 88.3364 55.0068 88.2359 54.7014C88.1355 54.3961 87.8844 54.1417 87.5831 53.9382H87.4324C87.332 53.8364 87.2315 53.7855 87.1813 53.7346C87.1311 53.6837 86.9805 53.7346 86.8298 53.7346L86.7796 53.6329Z" fill="#A7E043"/>
<path d="M119.573 59.7899C119.674 59.7899 119.875 59.9426 120.075 60.0952C120.326 60.2479 120.527 60.5023 120.678 60.8076C120.879 61.2147 120.979 61.5709 120.979 61.9271C120.979 62.2833 120.979 62.4868 120.929 62.5886C120.427 63.4536 119.724 64.4713 118.82 65.5908C117.916 66.7611 116.811 67.9315 115.505 69.1527C114.903 69.6615 114.2 70.2722 113.346 70.9846C112.492 71.6969 111.488 72.3584 110.333 73.0199C109.178 73.6814 107.922 74.2412 106.566 74.6482C105.21 75.0553 103.704 75.3098 102.047 75.3098C99.636 75.3098 97.6775 74.9536 96.1709 74.1903C94.6643 73.427 93.5595 72.4602 92.8564 71.1881C92.1533 69.916 91.8018 68.5421 91.8018 67.0155C91.8018 65.489 92.304 62.8939 93.3586 60.8585C94.4132 58.8231 95.7691 56.9913 97.4766 55.3629C99.184 53.7346 101.042 52.4116 103.151 51.3939C105.261 50.3762 107.32 49.8674 109.429 49.7656C109.831 49.7656 110.283 49.7656 110.684 49.7656C112.693 49.7656 114.25 50.2236 115.355 51.1395C116.46 52.0554 117.012 53.4802 117.012 55.3121C117.012 57.1948 116.46 58.7213 115.405 59.9426C114.3 61.1638 112.944 62.1815 111.287 63.0974C109.63 63.9625 108.023 64.624 106.365 65.031C104.909 65.3872 103.654 65.5399 102.649 65.5399C102.8 65.8961 103.051 66.1505 103.302 66.4558C104.005 67.0664 104.708 67.4735 105.512 67.5753C106.315 67.677 106.968 67.7788 107.42 67.7788C109.178 67.7788 110.684 67.3717 112.04 66.5576C113.396 65.7434 114.501 64.9293 115.455 64.1151C115.505 64.0642 115.606 64.0133 115.656 63.9625C116.761 63.0974 118.067 61.7235 119.573 59.8408V59.7899ZM109.328 53.6329C108.224 53.6329 107.069 54.1417 106.014 55.1085C104.909 56.0753 104.005 57.2966 103.302 58.7213C102.599 60.1461 102.197 61.5709 102.147 62.9956C102.9 62.9448 103.704 62.7412 104.608 62.4868C105.512 62.2324 106.466 61.7744 107.42 61.1129C108.073 60.7058 108.826 60.0443 109.63 59.2811C110.433 58.4669 110.885 57.5001 110.986 56.2789C110.986 56.1771 110.986 56.1262 110.986 56.0244C110.986 55.9227 110.986 55.7191 110.986 55.5156C110.986 55.2612 110.885 55.0068 110.785 54.7014C110.684 54.3961 110.433 54.1417 110.132 53.9382H109.981C109.881 53.8364 109.78 53.7855 109.73 53.7346C109.68 53.6837 109.529 53.7346 109.379 53.7346L109.328 53.6329Z" fill="#A7E043"/>
<path d="M146.29 61.1626C146.441 61.6205 146.541 62.0276 146.541 62.3838V62.5365C146.541 62.9436 146.441 63.198 146.391 63.3506C146.089 63.9613 145.637 64.7754 144.934 65.844C144.583 66.4546 143.98 67.2688 143.227 68.3882C142.423 69.5077 141.519 70.6271 140.414 71.7466C139.36 72.8661 138.154 73.8329 136.899 74.5453C135.895 75.105 134.89 75.4103 133.836 75.4103C132.781 75.4103 133.283 75.4103 133.032 75.4103C131.977 75.2068 131.023 74.7488 130.119 74.0364C129.215 73.324 128.613 72.459 128.211 71.4413C127.96 70.678 127.859 70.0165 127.859 69.355C127.859 68.6935 127.859 68.7953 127.91 68.5409C127.91 67.7267 128.161 66.8617 128.462 66.0475C128.763 65.2334 129.266 64.1139 129.969 62.74C130.672 61.3661 130.17 62.3329 130.27 62.1803C130.37 61.9259 130.521 61.6714 130.622 61.4679C131.475 59.6869 132.078 58.4148 132.429 57.5498C132.63 57.0918 132.681 56.7356 132.681 56.4303C132.681 56.125 132.63 56.0232 132.48 55.8706C132.379 55.7688 132.229 55.667 132.078 55.667C131.927 55.667 131.777 55.667 131.626 55.667H131.576C130.571 55.667 129.466 56.2777 128.362 57.4989C128.161 57.9569 128.01 58.313 127.809 58.6183C126.001 62.3329 124.143 65.9966 122.335 69.7112C121.733 70.9325 121.13 72.2046 120.527 73.4258C120.377 73.7311 120.226 74.0364 120.075 74.3926C119.875 74.7997 119.724 75.1559 119.523 75.563H119.171C119.021 75.563 118.92 75.563 118.77 75.563C117.313 75.563 116.108 75.0541 115.053 74.0873C114.853 73.8838 114.652 73.6802 114.451 73.4258C114.049 72.8661 113.798 72.3572 113.698 71.8484C113.597 71.3395 113.547 70.9324 113.547 70.6271C113.547 69.9656 113.597 69.4059 113.698 68.9988C113.798 68.5917 113.848 68.3882 113.898 68.2864C115.405 65.2842 116.861 62.3329 118.368 59.3307L122.838 50.3241C123.139 49.8153 123.39 49.2556 123.641 48.6958C123.641 48.5941 123.741 48.5432 123.741 48.4414C126.504 49.6626 128.211 51.5963 128.763 54.1405C129.316 53.7334 130.019 53.2246 130.873 52.614C131.726 52.0033 132.63 51.5454 133.434 51.1383C133.785 50.9857 134.288 50.7821 135.041 50.5786C135.644 50.4259 136.296 50.3241 137.05 50.3241H137.251C137.703 50.3241 138.205 50.3241 138.757 50.4259C139.41 50.5277 140.013 50.833 140.665 51.3418C141.168 51.7998 141.569 52.2578 141.821 52.7666C142.122 53.2755 142.273 53.7334 142.373 54.1405C142.473 54.5476 142.473 54.802 142.473 54.9038C142.473 55.0564 142.473 55.2091 142.473 55.3108C142.473 55.7179 142.423 56.1759 142.323 56.583C142.172 57.1427 141.871 57.8042 141.469 58.6183C140.163 61.2644 139.109 63.4015 138.255 64.9789C138.104 65.2842 137.954 65.5896 137.803 65.9966C137.753 66.2002 137.703 66.3528 137.703 66.5055C137.703 66.6581 137.703 66.8617 137.853 67.0143C137.954 67.1161 138.054 67.2179 138.205 67.2179C138.355 67.2179 138.506 67.2179 138.657 67.2179C139.561 67.2179 140.414 66.7599 141.168 65.8949C141.971 64.9789 142.674 64.063 143.277 62.9944C143.779 62.282 144.332 61.2135 144.984 59.8396C145.135 59.9413 145.286 60.094 145.537 60.2976C145.788 60.5011 145.989 60.8064 146.19 61.2135L146.29 61.1626Z" fill="#A7E043"/>
<path d="M96.9745 88.1332C97.2759 88.9474 97.4265 89.8124 97.4265 90.6775C97.4265 91.5425 97.3261 91.8987 97.1252 92.9164C96.9243 93.9341 96.3719 95.0027 95.4679 96.2748C94.564 97.5469 93.4089 98.5137 92.053 99.1752C90.9984 99.6332 90.0442 99.8876 89.1403 99.9385C88.8892 99.9385 88.6883 99.9385 88.4372 99.9385C87.8346 99.9385 87.3324 99.9385 86.9306 99.8367C87.0813 99.8367 87.3826 99.9894 87.7844 100.193C88.2363 100.396 88.6883 100.702 89.1905 101.16C89.6927 101.618 90.0944 102.177 90.446 102.89C90.6971 103.551 90.8478 104.162 90.8478 104.722C90.8478 105.281 90.8478 104.925 90.8478 105.23C90.8478 105.536 90.7975 105.892 90.6469 106.299C90.4962 106.706 90.446 106.961 90.3456 107.113C89.7429 108.436 88.7888 109.556 87.3826 110.421C85.9765 111.286 84.4699 111.845 82.8126 111.998C82.5615 111.998 82.3606 111.998 82.1095 111.998C80.7536 111.998 79.4479 111.642 78.2929 110.879C77.4893 110.268 76.8365 109.556 76.4347 108.792C75.6312 109.657 74.5766 110.37 73.3713 110.98C73.0198 111.133 72.5176 111.337 71.7643 111.591C71.0612 111.795 70.2577 111.896 69.2533 111.896H69.0022C68.5503 111.896 67.9978 111.845 67.345 111.744C66.6921 111.642 66.0393 111.337 65.3362 110.879C65.286 110.879 65.0851 110.675 64.7336 110.37C64.382 110.065 64.0305 109.607 63.6789 109.047C63.3274 108.487 63.0261 107.775 62.8754 106.961C62.8754 106.655 62.8252 106.35 62.8252 105.994C62.8252 105.027 63.0763 104.06 63.5785 102.992C64.0807 101.923 64.9344 101.007 66.1397 100.193C66.1397 100.498 66.0895 100.753 66.0895 101.007C66.0895 102.432 66.6419 103.551 67.6965 104.467C68.4498 105.027 69.2533 105.281 70.107 105.281C70.9608 105.281 70.5088 105.281 71.0612 105.23C71.6136 105.18 72.2163 104.925 72.8691 104.518C73.3713 104.213 73.7731 103.857 74.0242 103.45C74.3255 103.093 74.5264 102.737 74.6268 102.483C75.3299 101.058 75.9828 99.684 76.6858 98.2593L82.8628 85.589C82.0593 85.6908 81.2558 85.8434 80.5025 86.0978C79.3977 86.5049 78.3933 87.0646 77.3889 87.8788C76.3845 88.693 75.581 89.6089 74.9783 90.7283C74.4259 91.746 74.1246 92.8655 74.1246 94.0359V94.3412C74.1748 95.2571 74.3757 96.0712 74.677 96.7327C74.9784 97.3942 75.2797 97.954 75.581 98.3102C75.4303 98.4119 75.129 98.5646 74.5766 98.819C74.0744 99.0734 73.4216 99.2261 72.6683 99.3279C72.4674 99.3279 72.3167 99.3279 72.1158 99.3279C71.5634 99.3279 70.9608 99.2261 70.3581 98.9717C69.2533 98.4628 68.4498 97.6487 67.9476 96.5801C67.4454 95.6133 67.2445 94.6465 67.2445 93.7305C67.2445 92.8146 67.2445 93.527 67.2445 93.4252C67.3952 91.746 68.2991 90.1686 69.9564 88.7438C71.6136 87.3191 73.6726 86.1487 76.1334 85.2328C78.5942 84.3169 81.1052 83.808 83.7166 83.6045C84.269 82.485 84.8214 81.3656 85.3738 80.2461C85.5245 80.2461 85.7756 80.3988 86.0769 80.6023C86.4284 80.8058 86.78 81.1111 87.1817 81.4673C87.5835 81.8744 87.8848 82.3324 88.1861 82.9939C88.2865 83.1974 88.3368 83.401 88.387 83.6554C89.4918 83.7571 90.5967 83.9098 91.7517 84.2151C92.9068 84.5204 93.9111 84.9784 94.8151 85.589C95.7191 86.1996 96.4221 87.0138 96.8741 88.0823L96.9745 88.1332ZM81.4065 107.673C82.3104 107.52 83.0637 107.113 83.7166 106.452C84.3694 105.79 84.7712 104.976 84.9721 104.111C85.0725 103.806 85.0725 103.45 85.0725 103.144C85.0725 102.584 84.9721 102.025 84.721 101.465C84.1686 100.346 83.2646 99.5823 82.0091 99.1243C81.9087 99.3279 81.8082 99.5823 81.6576 99.7858C80.9043 101.363 80.1008 102.941 79.3475 104.518C79.1466 104.976 78.795 105.739 78.2426 106.655C79.0964 107.368 80.0003 107.724 80.9545 107.724C81.9087 107.724 81.2558 107.724 81.4065 107.724V107.673ZM89.1905 95.8168C89.994 95.1553 90.6971 94.2903 91.2997 93.2217C91.7015 92.4584 91.9526 91.6951 91.9526 90.881C91.9526 90.0668 91.9526 90.2704 91.8522 89.9651C91.6513 89.1509 91.1993 88.4894 90.5967 87.8788C89.994 87.2682 89.1403 86.8102 88.2363 86.4031C86.4787 90.016 84.721 93.6288 82.9633 97.2925C83.4153 97.3942 83.9677 97.4451 84.6707 97.4451H84.7712C85.424 97.4451 86.1271 97.3434 86.9306 97.0889C87.7341 96.8854 88.4874 96.4274 89.2909 95.8168H89.1905Z" fill="#F2CB57"/>
<path d="M102.649 103.5C102.75 103.754 102.8 104.008 102.8 104.263C102.8 104.517 102.8 104.365 102.8 104.517C102.8 104.67 102.8 104.772 102.75 104.873C102.549 105.23 102.298 105.738 101.896 106.349C101.695 106.705 101.344 107.214 100.841 107.876C100.339 108.537 99.7868 109.199 99.134 109.86C98.4811 110.522 97.778 111.081 97.0247 111.539C96.4221 111.896 95.7692 112.048 95.1164 112.048C94.4635 112.048 94.8151 112.048 94.6644 112.048C94.0618 111.946 93.4591 111.641 92.9067 111.234C92.3543 110.827 92.0028 110.267 91.7517 109.657C91.601 109.199 91.5508 108.792 91.5508 108.384C91.5508 107.977 91.5508 108.079 91.5508 107.927C91.6512 107.163 92.2036 105.688 93.3085 103.55C94.4133 101.413 95.6688 98.9708 97.0749 96.223C97.1252 96.0704 97.2256 95.9686 97.2758 95.816C98.1798 96.223 98.8829 96.7319 99.4353 97.4443C99.9877 98.1567 100.289 98.869 100.339 99.7341V99.8358C100.339 100.294 100.289 100.701 100.138 101.108C99.9877 101.515 99.8872 101.769 99.7366 101.973C98.9331 103.55 98.3304 104.823 97.8282 105.789C97.7278 105.942 97.6274 106.146 97.5771 106.4C97.5771 106.502 97.5269 106.604 97.5269 106.705C97.5269 106.807 97.5269 106.909 97.6274 107.011C97.6776 107.061 97.778 107.112 97.8282 107.112C97.8785 107.112 98.0291 107.112 98.1296 107.112C98.682 107.112 99.1842 106.858 99.6362 106.298C100.088 105.738 100.54 105.179 100.892 104.568C101.193 104.161 101.545 103.5 101.896 102.685C101.996 102.685 102.097 102.787 102.248 102.94C102.398 103.092 102.499 103.245 102.649 103.5ZM104.256 93.2208C104.256 94.035 103.955 94.7474 103.403 95.358C102.85 95.9686 102.147 96.223 101.344 96.223C100.54 96.223 99.837 95.9177 99.2846 95.358C98.7322 94.7983 98.4309 94.0859 98.4309 93.2208C98.4309 92.3558 98.7322 91.6943 99.2846 91.1346C99.837 90.5748 100.54 90.2695 101.344 90.2695C102.147 90.2695 102.85 90.5748 103.403 91.1346C103.955 91.6943 104.256 92.4067 104.256 93.2208Z" fill="#F2CB57"/>
<path d="M111.488 94.4925C110.483 96.5788 109.479 98.6142 108.575 100.548C108.173 101.311 107.721 102.329 107.118 103.601C106.516 104.873 106.014 105.84 105.662 106.654C105.662 106.756 105.662 106.857 105.762 106.959C105.813 107.01 105.913 107.061 105.963 107.112C106.064 107.112 106.114 107.112 106.265 107.112C106.817 107.112 107.319 106.857 107.771 106.298C108.223 105.789 108.675 105.178 109.027 104.568C109.328 104.161 109.629 103.499 110.031 102.685C110.132 102.685 110.232 102.787 110.383 102.939C110.533 103.092 110.634 103.245 110.784 103.499C110.885 103.754 110.985 104.008 110.985 104.211V104.466C110.985 104.619 110.935 104.72 110.885 104.822C110.684 105.178 110.433 105.687 110.031 106.298C109.73 106.807 109.228 107.468 108.525 108.435C107.821 109.351 107.018 110.216 106.064 110.928C105.16 111.641 104.206 111.997 103.201 111.997H103.101C103.101 111.997 103 111.997 102.9 111.997C102.8 111.997 102.649 111.997 102.348 111.997C102.096 111.997 101.745 111.895 101.293 111.692C100.841 111.539 100.439 111.234 100.037 110.776C99.5855 110.165 99.3344 109.503 99.2842 108.74V108.588C99.2842 107.875 99.4851 107.214 99.8868 106.552C100.791 105.077 101.594 103.55 102.348 101.973C102.9 100.802 103.452 99.6827 104.105 98.5633C104.658 97.5456 105.361 96.2226 106.164 94.4925H102.548V92.508H107.118C107.621 91.4394 108.173 90.2691 108.826 88.8952C109.429 87.5722 109.931 86.5036 110.282 85.6895C110.433 85.6895 110.684 85.8421 111.036 86.0456C111.387 86.2492 111.739 86.5545 112.14 86.9107C112.542 87.3178 112.843 87.8266 113.145 88.4372C113.346 88.9461 113.446 89.404 113.496 89.8111C113.496 89.9638 113.496 90.1164 113.496 90.2691C113.496 90.4726 113.496 90.6762 113.496 90.8288C113.245 91.3885 112.944 91.9483 112.693 92.508H116.51V94.4925H111.688H111.488Z" fill="#F2CB57"/>
<path d="M124.494 102.686C124.544 102.686 124.645 102.788 124.796 102.889C124.946 102.991 125.047 103.144 125.147 103.347C125.298 103.602 125.348 103.805 125.348 104.009C125.348 104.212 125.348 104.314 125.348 104.416C125.047 104.925 124.645 105.535 124.092 106.248C123.54 106.96 122.887 107.673 122.084 108.385C121.732 108.69 121.28 109.046 120.778 109.504C120.276 109.962 119.673 110.319 118.97 110.726C118.267 111.133 117.514 111.438 116.71 111.692C115.907 111.947 115.003 112.1 113.998 112.1C112.542 112.1 111.387 111.896 110.483 111.438C109.579 110.98 108.926 110.369 108.474 109.657C108.022 108.945 107.821 108.08 107.821 107.164C107.821 106.248 108.123 104.67 108.775 103.449C109.428 102.228 110.232 101.108 111.236 100.142C112.241 99.1748 113.396 98.3606 114.651 97.75C115.907 97.1394 117.162 96.8341 118.418 96.7832C118.669 96.7832 118.92 96.7832 119.171 96.7832C120.376 96.7832 121.28 97.0376 121.983 97.5974C122.686 98.1571 122.988 98.9712 122.988 100.091C122.988 101.21 122.686 102.126 122.033 102.838C121.381 103.551 120.577 104.161 119.573 104.721C118.568 105.281 117.614 105.637 116.61 105.892C115.756 106.095 115.003 106.197 114.4 106.197C114.5 106.4 114.651 106.553 114.802 106.757C115.204 107.113 115.656 107.367 116.158 107.418C116.66 107.469 117.011 107.571 117.313 107.571C118.367 107.571 119.271 107.316 120.075 106.807C120.878 106.299 121.581 105.841 122.134 105.332C122.134 105.332 122.234 105.281 122.234 105.23C122.887 104.721 123.691 103.907 124.595 102.737L124.494 102.686ZM118.367 98.9713C117.715 98.9713 117.011 99.2766 116.359 99.8363C115.706 100.396 115.153 101.159 114.701 101.973C114.249 102.788 114.049 103.704 113.998 104.569C114.45 104.569 114.952 104.416 115.455 104.263C115.957 104.111 116.559 103.805 117.162 103.449C117.564 103.195 118.016 102.838 118.468 102.33C118.92 101.821 119.221 101.261 119.271 100.549C119.271 100.549 119.271 100.447 119.271 100.396C119.271 100.345 119.271 100.243 119.271 100.091C119.271 99.9381 119.221 99.7854 119.171 99.5819C119.121 99.3783 118.97 99.2257 118.769 99.1239H118.669C118.618 99.073 118.568 99.0221 118.518 99.0221C118.468 99.0221 118.418 99.0221 118.317 99.0221L118.367 98.9713Z" fill="#F2CB57"/>
<path d="M100.892 114.541C100.892 114.541 100.64 114.693 100.138 114.948C99.636 115.202 98.9329 115.558 98.029 115.965C96.1709 116.78 93.5092 117.848 90.1445 118.713C86.83 119.629 82.8124 120.342 78.4935 120.596C74.1747 120.85 69.5545 120.647 64.9845 119.833C62.7246 119.477 60.4145 118.917 58.255 118.255C56.0956 117.543 53.9864 116.729 52.0278 115.762C48.1107 113.828 44.746 111.386 42.1848 108.994C39.6236 106.603 37.7654 104.211 36.6104 102.481C36.0078 101.616 35.606 100.904 35.3549 100.395C35.1038 99.8859 34.9531 99.6315 34.9531 99.6315C34.9531 99.6315 35.2042 99.1735 35.606 98.8682C36.0078 98.512 36.5602 98.3085 37.1628 98.5629C37.3637 98.6138 37.9161 99.6824 39.0711 101.311C40.2262 102.939 41.9337 105.178 44.3442 107.519C46.7547 109.808 49.8684 112.2 53.5344 114.083C55.3925 115.05 57.3511 115.915 59.4101 116.627C61.4691 117.339 63.6285 117.95 65.788 118.357L67.4452 118.662C67.9976 118.764 68.5501 118.866 69.1025 118.917C70.2073 119.069 71.3122 119.222 72.417 119.324C73.5218 119.375 74.6266 119.477 75.6813 119.527C76.7359 119.527 77.8407 119.527 78.8953 119.527C83.1137 119.426 86.9807 118.917 90.2952 118.154C93.6097 117.441 96.2713 116.525 98.1294 115.813C99.0334 115.457 99.7867 115.151 100.239 114.948C100.741 114.744 100.992 114.592 100.992 114.592L100.892 114.541Z" fill="#7DBE35"/>
<g style="mix-blend-mode:multiply" opacity="0.6">
<path d="M51.8267 114.948C56.0954 117.187 60.7658 118.663 65.5367 119.426C70.3075 120.24 75.1788 120.495 79.9999 120.088C79.3471 120.138 78.6942 120.088 77.9911 120.088C77.3383 120.088 76.6352 120.088 75.9321 120.088C75.2291 120.088 74.5762 120.037 73.8731 119.986C73.5216 119.986 73.17 119.986 72.8185 119.935C72.467 119.935 72.1154 119.935 71.7639 119.833C71.0608 119.731 70.3578 119.68 69.6547 119.579L68.6 119.477C68.2485 119.477 67.897 119.375 67.5454 119.273C66.8424 119.121 66.1393 119.019 65.4362 118.866L64.3816 118.663L63.327 118.408C60.5649 117.747 57.9033 116.831 55.4425 115.762C52.9818 114.643 50.7219 113.371 48.7131 111.946C46.7043 110.521 44.9466 109.046 43.4902 107.621C42.0339 106.145 40.8286 104.771 39.9247 103.55C38.0665 101.108 37.1626 99.4283 36.9617 99.3265C36.5599 99.1739 36.1582 99.2248 35.8066 99.3774C36.6102 101.057 37.715 102.634 38.8198 104.11C39.9749 105.585 41.2304 107.01 42.5863 108.282C45.2981 110.877 48.4118 113.065 51.7263 114.795L51.8267 114.948Z" fill="#588325"/>
</g>
<path d="M80.4015 48.0854C80.4015 48.0854 79.3971 46.7115 80.8534 45.9991L80.6023 44.9306C80.6023 44.9306 77.79 44.5744 76.7354 41.8775C75.6306 39.1806 76.3337 36.331 78.8949 34.3974C81.4561 32.4638 86.0763 33.3289 88.8384 35.3134L89.0392 35.4151C89.0392 35.4151 94.3625 33.9395 98.0286 39.1806L98.2797 39.3841C98.2797 39.3841 101.895 39.8421 102.046 43.1496C102.147 46.4571 99.6356 48.5943 96.8735 47.7292L96.5722 48.2381C96.5722 48.2381 97.6268 49.7646 97.1748 50.3752C96.6726 50.9858 95.5678 51.0367 95.5678 51.0367L96.07 49.9681C96.07 49.9681 92.9564 46.7115 88.3864 46.2027C88.3864 46.2027 82.7618 45.7956 80.4517 48.1363L80.4015 48.0854Z" stroke="#A7E043" stroke-miterlimit="10"/>
</svg>
